<?xml version="1.0" encoding="UTF-8"?>
<svg width="1200pt" height="1200pt" version="1.1" viewBox="0 0 1200 1200" xmlns="http://www.w3.org/2000/svg">
 <g fill="#fff">
  <path d="m564.5 885.5c12.871 11.023 30.453 14.777 46.703 9.9688 16.25-4.8047 28.961-17.516 33.766-33.766 4.8086-16.25 1.0547-33.832-9.9688-46.703l-214.5-215 214.5-214.5c11.023-12.871 14.777-30.453 9.9688-46.703-4.8047-16.25-17.516-28.961-33.766-33.766-16.25-4.8086-33.832-1.0547-46.703 9.9688l-250 250c-9.3125 9.3672-14.539 22.039-14.539 35.25s5.2266 25.883 14.539 35.25z"/>
  <path d="m869 304c-9.1523-3.7656-19.219-4.7305-28.922-2.7734-9.6992 1.957-18.602 6.75-25.578 13.773l-250 250c-9.3125 9.3672-14.539 22.039-14.539 35.25s5.2266 25.883 14.539 35.25l250 250c9.3789 9.457 22.141 14.781 35.461 14.789 13.316 0.011719 26.09-5.2891 35.484-14.73 9.3945-9.4414 14.633-22.242 14.555-35.559v-500c-0.050781-9.8711-3.0195-19.508-8.5352-27.691-5.5156-8.1875-13.332-14.559-22.465-18.309z"/>
 </g>
</svg>
