<?xml version="1.0" encoding="UTF-8"?>
<svg width="1200pt" height="1200pt" version="1.1" viewBox="0 0 1200 1200" xmlns="http://www.w3.org/2000/svg">
 <path d="m461.91 170.09c68.34-93.453 207.83-93.453 276.17 0 15.68 21.441 42.016 32.352 68.266 28.277 114.4-17.758 213.04 80.875 195.29 195.28-4.0781 26.25 6.8281 52.586 28.273 68.266 93.453 68.34 93.453 207.83 0 276.17-21.445 15.68-32.352 42.016-28.273 68.266 17.754 114.4-80.883 213.04-195.29 195.29-26.25-4.0781-52.586 6.8281-68.266 28.273-68.34 93.453-207.83 93.453-276.17 0-15.68-21.445-42.016-32.352-68.266-28.273-114.41 17.754-213.04-80.883-195.28-195.29 4.0742-26.25-6.8359-52.586-28.277-68.266-93.453-68.34-93.453-207.83 0-276.17 21.441-15.68 32.352-42.016 28.277-68.266-17.758-114.41 80.875-213.04 195.28-195.28 26.25 4.0742 52.586-6.8359 68.266-28.277zm324.95 363.7c18.656-20.355 17.281-51.984-3.0742-70.645-20.355-18.656-51.984-17.281-70.645 3.0742l-149.52 163.11-79.805-73.289c-20.34-18.68-51.969-17.332-70.648 3.0039-18.676 20.34-17.332 51.969 3.0078 70.648l116.66 107.14c9.7773 8.9766 22.715 13.699 35.973 13.129 13.254-0.56641 25.742-6.3867 34.707-16.168z" fill="#fff" fill-rule="evenodd"/>
</svg>
